<svg width="60" height="60" viewBox="0 0 60 60" fill="none" xmlns="http://www.w3.org/2000/svg">
<path d="M53.0277 11.6553C54.4339 13.4978 55.6243 15.4995 56.5749 17.6203L29.6098 37.7653L18.3403 30.6059V21.9928L29.6098 29.1522L53.0277 11.6553Z" fill="white"/>
<path d="M6.8389 29.9992C6.8389 29.6127 6.8482 29.2288 6.8668 28.847L0.0371952 28.5079C0.0139495 29.0026 8.25326e-06 29.5021 8.25326e-06 30.0062C-0.00289755 33.9448 0.761532 37.8452 2.24947 41.4836C3.73739 45.1222 5.91951 48.4271 8.67067 51.2089L13.5151 46.3017C11.3973 44.1641 9.71732 41.6234 8.5716 38.8256C7.42587 36.0279 6.83703 33.0282 6.8389 29.9992Z" fill="white"/>
<path d="M29.6033 6.93045C29.9845 6.93045 30.3633 6.94459 30.7398 6.96343L31.0816 0.0395701C30.592 0.0160115 30.0991 0.00423368 29.6033 0.00423368C25.715 -0.000571699 21.8644 0.773028 18.2722 2.28061C14.6799 3.7882 11.4169 6.00008 8.67041 8.78924L13.5148 13.6988C15.6241 11.5519 18.1314 9.84866 20.8924 8.6871C23.6534 7.52555 26.6137 6.92854 29.6033 6.93045Z" fill="white"/>
<path d="M29.6037 53.0698C29.2225 53.0698 28.8436 53.0698 28.4648 53.0392L28.123 59.9607C28.6143 59.9858 29.1079 59.9985 29.6037 59.9985C33.4903 60.0025 37.3391 59.2284 40.9295 57.7204C44.5198 56.2124 47.7807 54.0002 50.5251 51.2111L45.6899 46.3039C43.5803 48.4497 41.0733 50.152 38.3128 51.3131C35.5523 52.4742 32.5926 53.0713 29.6037 53.0698Z" fill="white"/>
<path d="M42.4358 10.9548L48.1914 6.65534C42.9307 2.33814 36.364 -0.0119841 29.5947 4.59568e-05V6.92862C34.1785 6.92286 38.656 8.32675 42.4358 10.9548Z" fill="white"/>
<path d="M59.2049 30.0003C59.2085 28.1979 59.053 26.3986 58.7398 24.6242L52.3683 29.383C52.3683 29.5881 52.3683 29.793 52.3683 30.0003C52.3699 33.2238 51.7031 36.4117 50.4114 39.3572C49.1195 42.3028 47.2312 44.9404 44.8691 47.099L49.4649 52.2467C52.5358 49.4371 54.9897 46.0049 56.6676 42.1726C58.3456 38.3401 59.21 34.193 59.2049 30.0003Z" fill="white"/>
<path d="M29.6038 53.0705C26.4229 53.0716 23.2772 52.3956 20.3703 51.0865C17.4636 49.7773 14.8605 47.8639 12.7297 45.4705L7.65283 50.1256C10.4248 53.2383 13.8113 55.7257 17.5929 57.4267C21.3744 59.1275 25.4665 60.0039 29.6038 59.999V53.0705Z" fill="white"/>
<path d="M14.338 12.9001L9.74464 7.75256C6.67288 10.5616 4.21802 13.9937 2.53927 17.8261C0.860546 21.6585 -0.0045768 25.8058 1.82087e-05 29.9989H6.83892C6.83751 26.7756 7.50434 23.5877 8.79617 20.6421C10.088 17.6966 11.9761 15.059 14.338 12.9001Z" fill="white"/>
</svg>
