<svg width="60" height="60" viewBox="0 0 60 60" fill="none" xmlns="http://www.w3.org/2000/svg">
<path d="M59.2074 28.0593L60 25.5704L57.4223 25.6518C56.2148 25.6074 55.0518 25.2 54.0741 24.4815H54.4223C55.9926 24.474 57.4296 23.5777 58.1259 22.1703L59.2593 19.7481C58.3704 19.7556 57.4815 19.7037 56.5999 19.5926C55.7556 19.3926 55 18.9333 54.4296 18.2816C53.6592 17.4593 52.5925 16.9926 51.4667 16.9852C51.0297 16.9852 50.5926 17.0592 50.1703 17.1926C50.2296 16.9926 50.2815 16.7927 50.3186 16.5852C50.4963 15.1407 50.0889 13.6815 49.1926 12.5333L47.2371 10.1259L46.0371 12.9407C45.8445 13.3407 45.5556 13.6889 45.1852 13.9407C44.9778 12.9333 44.489 12.0148 43.763 11.2889C42.5481 10.0444 40.8815 9.34815 39.1407 9.36297C38.8371 9.36297 38.5333 9.38518 38.2371 9.42963L35.8964 9.88888C36.0963 9.10371 36.4147 8.35556 36.8445 7.66667L38.1333 5.65926L34.889 5.96297L33.8518 3.74074L31.8519 4.82962L30 3L28.1481 4.82962L26.1482 3.7926L25.111 5.96297L21.8667 5.59259L23.1555 7.6074C23.5853 8.29629 23.9037 9.04445 24.1036 9.82964L21.8815 9.3926H21.8074C21.4963 9.34815 21.1853 9.32592 20.874 9.32592C19.1334 9.31111 17.4666 10.0074 16.2519 11.2518C15.5186 11.9852 15.0149 12.9185 14.8148 13.9407C14.4593 13.6963 14.1704 13.363 13.9778 12.9704L12.7704 10.1333L10.8 12.5481C9.91852 13.6963 9.52593 15.1482 9.6963 16.5852C9.73334 16.7927 9.78519 16.9926 9.84444 17.1926C9.42222 17.0592 8.98518 16.9852 8.54815 16.9852C7.42222 16.9926 6.35556 17.4593 5.58519 18.2816C5.02222 18.926 4.27407 19.3853 3.43704 19.5926C2.54815 19.7259 1.64445 19.7778 0.74074 19.7481L1.84444 22.2073C2.54075 23.6148 3.97778 24.511 5.54815 24.5185H5.89629C4.93334 25.2222 3.78519 25.6296 2.5926 25.6815L0 25.5704L0.792593 28.0593C1.38519 30.0073 3.06666 31.437 5.08889 31.6964C4.88148 33.0073 4.05185 34.1407 2.86667 34.7334L0.881481 35.5407L1.94815 37.3999C2.82963 38.7704 4.34816 39.5851 5.97038 39.5703C6.39259 39.5703 6.81481 39.5259 7.22962 39.4371C7.33333 39.8889 7.46667 40.3407 7.61481 40.7778C7.98519 41.7555 8.0074 42.8222 7.68889 43.8148L6.72593 45.837L8.88148 46.4074C9.36297 46.5333 9.86667 46.5926 10.363 46.5926C10.7185 46.5926 11.0667 46.5555 11.4148 46.4741C11.6667 46.4148 11.9185 46.3407 12.1556 46.2444C12.4296 46.7407 12.7778 47.2001 13.1704 47.6075C14.5482 49.0223 16.5037 49.7407 18.9852 49.7407H20.7555L17.1038 51.2592L19.8741 52.6296C20.9927 53.1778 22.1334 53.674 23.2964 54.1112L22.9629 55.074L23.9185 55.5111C25.5037 56.1333 27.1853 56.4815 28.889 56.5407H31.1629C32.8593 56.4815 34.5333 56.1259 36.1112 55.5037L37.0371 55.074L36.7112 54.1112C37.889 53.6592 39.0444 53.1482 40.1703 52.5777L42.8889 51.2592L39.2445 49.7778H41.0222C43.5037 49.7778 45.4667 49.0371 46.8371 47.6445C47.2371 47.2371 47.5777 46.7778 47.8518 46.2814C48.0889 46.3778 48.3408 46.4519 48.5927 46.5111C48.9408 46.5926 49.2889 46.6296 49.6444 46.6296C50.1408 46.6296 50.6445 46.563 51.126 46.4445L53.2889 45.8741L52.3482 43.889C51.9925 42.8815 52.0074 41.7779 52.3853 40.7778C52.5408 40.3259 52.6666 39.8667 52.7703 39.4074C53.1852 39.4963 53.6148 39.5407 54.037 39.5407C55.674 39.5556 57.2 38.7111 58.0667 37.3185L59.1185 35.4815L57.1629 34.6815C55.9778 34.0889 55.1481 32.9556 54.9408 31.6445C56.963 31.3778 58.6445 29.9556 59.2371 28L59.2074 28.0593Z" fill="white"/>
<path d="M38.9038 35.926H21.126V42.5926C21.126 45.3334 23.1037 47.0371 26.0296 47.0371C28.4742 47.0371 29.1186 47.1334 30.0223 48.037C30.5926 47.4223 31.4001 47.0741 32.2446 47.0888V46.9852L32.8075 45.2518L31.8519 44.2073C31.4667 44.326 31.0668 44.3704 30.6667 44.3482C30.0667 44.3407 29.4741 44.2814 28.8889 44.1629H28.7038C28.6222 44.1629 28.6222 44.1629 28.6 44.2073L28.489 44.3926L28.2889 44.7259L27.9037 44.6371L26.1927 44.237L25.9557 44.6222V44.6666L26.163 44.8963L26.0742 45.1925C25.9186 45.5555 25.6963 45.8815 25.4149 46.163L24.9853 46.6222L24.5926 46.1333L24.3037 45.7703C23.9926 45.3629 23.9185 44.8297 24.0964 44.3482L23.6149 44.5481L23.4001 44.0741L23.2816 43.7407C22.9779 43.037 23.2075 42.2222 23.8222 41.7778L25.2001 41.0371L26.5111 41.2963C26.5111 41.1704 26.5927 40.7185 26.6298 40.6073H26.5557L25.8148 40.8889L25.0741 40.3852C24.9259 40.237 24.9186 39.9926 25.0741 39.8371L25.7778 38.7704L23.9926 36.5482L26.6667 37.6L26.8519 37.3778L27.2223 36.9334L27.6445 37.3333C27.7557 37.4444 27.8296 37.5778 27.8667 37.7333C28.6075 38.0296 29.9778 38.8963 30.0889 40.3037L29.6667 40.4741C29.7186 40.5481 29.7853 40.6073 29.8668 40.6444L31.8223 40.837L32.0001 40.7852C32.3334 40.6592 32.689 40.5926 33.0445 40.5851C33.4 40.5851 33.7482 40.6667 34.0668 40.8223C34.2075 40.7704 34.363 40.7407 34.5112 40.7333H34.6075C35.652 40.7333 36.1779 41.5186 36.5926 42.1408L36.8074 42.4519C37.1704 42.9704 37.6519 43.726 37.6741 43.7555L37.8889 44.0888L37.6222 44.3999C37.3779 44.7259 36.9927 44.9111 36.5853 44.9111C36.4668 44.9185 36.3483 44.9185 36.2296 44.9111C36.126 44.8889 36.0223 44.8592 35.9185 44.8148C35.9185 44.9185 35.9185 45.0445 35.8593 45.1481L35.5557 46.8962C37.5705 46.4888 38.9926 44.6815 38.9112 42.6223L38.9038 35.926ZM21.1038 35.3852H34.9482C34.3852 34.7927 34.1926 33.9409 34.4445 33.163C34.2594 33.0742 34.0815 32.9557 33.9259 32.8223C33.3852 33.2222 31.7038 34.4222 31.3038 34.726L31.2148 34.7852L25.7778 33.8222H25.6668C25.4889 33.8297 25.3111 33.8297 25.1334 33.8222C25.0815 34.0667 24.8667 34.2371 24.6223 34.2371H24.5334C24.2445 34.1852 24.0445 33.9112 24.0889 33.6223V33.5038C23.3853 33.0001 23.052 32.126 23.2371 31.2815V31.1852L23.3185 31.126C23.3185 31.126 23.4223 31.0519 23.563 30.9704L23.1705 30.9112C23.0223 30.8815 22.926 30.7483 22.9482 30.6001C22.9704 30.4519 23.1037 30.3556 23.2519 30.3778H23.2593L24.2001 30.526L24.2889 27.2149L25.689 25.7333L26.563 27.5704L25.6446 30.7556L26.4741 30.889C26.6223 30.9185 26.7186 31.0519 26.6964 31.2001C26.6742 31.3334 26.563 31.4222 26.4297 31.4222H26.3853L25.7112 31.3112V31.363C25.7853 31.4963 25.8964 31.6001 26.0371 31.6667L30.1779 31.7333L31.237 30.689C30.4297 30.4075 29.8519 29.6963 29.7556 28.8445C29.2371 28.6445 28.8148 28.2593 28.5778 27.763C28.3779 27.2963 28.3408 26.7704 28.4815 26.2816C27.8296 26.0222 27.2371 25.6297 26.7556 25.126H20.6074C20.9038 25.852 21.0741 26.6222 21.1038 27.4001V35.3852Z" fill="#E1E8F4"/>
<path d="M26.7853 38.8372C26.6964 38.8372 26.6149 38.9038 26.6074 38.9927V39.0001C26.6001 39.0964 26.6742 39.1853 26.7705 39.1927H26.7778C26.8815 39.1927 26.9556 39.1112 26.9556 39.0149C26.9556 38.9111 26.8815 38.8372 26.7853 38.8372Z" fill="#E1E8F4"/>
<path d="M26.7779 38.8299C26.7853 38.8299 26.7853 38.8372 26.7853 38.8372C26.7928 38.8372 26.7927 38.8299 26.8001 38.8299H26.7779ZM38.8814 50.9779L37.8593 50.5854L38.1407 49.5261L38.4518 48.3705C37.0519 49.0891 35.5851 49.6668 34.074 50.0965C33.3334 50.3038 32.8 50.4001 32.8 50.4001V51.1483C31.8889 51.2965 30.9704 51.378 30.0445 51.3853H29.963C29.0371 51.378 28.1185 51.2965 27.2074 51.1483V50.4076C27.2074 50.4076 26.6666 50.3038 25.9259 50.0965C24.4148 49.6668 22.9481 49.0891 21.5482 48.3705L21.8519 49.5261L22.1407 50.5854L21.1111 50.9779L20 51.4002C21.5259 52.1928 23.1185 52.852 24.763 53.3706L24.3704 54.4372C26.1556 55.1187 28.0667 55.452 29.9777 55.4076H30.0222C31.9332 55.452 33.8444 55.1187 35.6296 54.4372L35.2444 53.3706C36.8815 52.852 38.474 52.1928 40 51.4002L38.8814 50.9779ZM21.2371 51.4668L22.8962 50.9113L22.4 49.2817C23.4889 49.8223 24.6148 50.2743 25.7777 50.6298L24.9629 52.852C23.6814 52.5112 22.4296 52.0446 21.2371 51.4668ZM30.0445 54.8817L30.0074 54.852C28.3778 54.8446 26.7556 54.6223 25.1852 54.1927L26.1851 51.4816C27.4296 51.7927 28.7111 51.9631 29.9999 51.9705H30.0815C31.3703 51.9558 32.6518 51.7927 33.8963 51.4816L34.8962 54.1927C33.3185 54.6372 31.6814 54.8668 30.0445 54.8817ZM35.0963 52.8964V52.8742L34.2815 50.652C35.4445 50.2965 36.5704 49.8447 37.6592 49.3039L37.163 50.9335L38.8444 51.4965C37.6444 52.0816 36.3851 52.5558 35.0963 52.8964ZM30.0001 8.69647C31.6741 8.65203 33.3185 9.15573 34.6814 10.1261C34.8963 9.0298 35.3038 7.97796 35.8889 7.0224L34.2074 7.215L33.3334 5.34091L31.637 6.21499L30.0001 4.59277L28.363 6.21499L26.6666 5.34091L25.7926 7.215L24.111 7.0224C24.6963 7.97796 25.1038 9.0298 25.3186 10.1261C26.6814 9.15573 28.3259 8.65203 30.0001 8.69647ZM25.7184 7.86684L26.1853 7.91869L26.3852 7.49647L26.9704 6.23721L28.0592 6.80017L28.4815 7.01499L28.8223 6.70387L30.0001 5.51128L31.1777 6.70387L31.5185 7.03722L31.9408 6.8224L33.0222 6.25944L33.6147 7.51869L33.8148 7.94092L34.2815 7.88907L34.726 7.83721C34.5482 8.24463 34.3927 8.66685 34.2667 9.09648C31.5926 7.72611 28.4149 7.72611 25.7408 9.09648C25.6148 8.66685 25.4592 8.24463 25.2815 7.83721L25.7184 7.86684ZM51.9706 23.9853L51.7705 23.7409C50.3927 21.9853 49.0816 20.3187 46.741 19.5556C46.8373 19.4742 46.9336 19.4001 47.0372 19.3335C48.1483 18.7038 48.9335 17.6224 49.1853 16.3705C49.3112 15.2371 48.9928 14.1038 48.2965 13.2001L47.5558 12.2742L47.0891 13.3779C47.0891 13.4446 46.2668 15.2149 44.6075 15.2149H44.1186C44.2076 14.052 43.7854 12.9038 42.9631 12.0742C41.9632 11.052 40.5854 10.4816 39.1558 10.489C38.889 10.489 38.6223 10.5112 38.3631 10.5483L37.2297 10.7705L37.9335 11.6964C38.4816 12.4372 38.9779 13.7187 38.3927 14.4075C38.1113 14.652 37.7927 14.8446 37.4445 14.9779C36.7038 15.3261 35.6372 15.8224 35.6372 17.0668C35.6372 17.8743 36.2668 18.7186 37.4002 19.4371C40.7409 21.5557 42.8075 23.7409 43.7039 26.2002C45.089 29.9482 43.2817 32.0817 41.5261 33.2076L40.741 33.7113L41.4298 34.3408C42.0446 34.8669 42.8001 35.1927 43.6076 35.2743H44.2816C44.9705 35.2743 45.652 35.178 46.3112 34.9779C46.1483 35.2668 45.9484 35.5408 45.7336 35.7927C44.7335 36.9556 43.252 37.5927 41.7187 37.5112H41.0594L41.0075 38.1705C41.0002 39.0964 41.4076 39.9705 42.1112 40.5705C42.2965 40.7335 42.5039 40.8669 42.726 40.9705C41.6297 42.0372 41.0075 43.4964 40.9853 45.0298C40.9853 45.8668 40.7927 46.6965 40.4297 47.452L39.689 48.5631H41.0075C43.1854 48.5631 44.852 47.9631 46.0076 46.7706C46.6076 46.1409 47.0521 45.378 47.3113 44.5483C47.7409 44.9112 48.2446 45.1632 48.7928 45.289C49.052 45.3483 49.3187 45.378 49.5854 45.378C49.9853 45.378 50.3854 45.3261 50.7705 45.2371L51.6149 45.015L51.2445 44.2297C50.7779 42.978 50.7779 41.5927 51.2445 40.3408C51.5186 39.526 51.7112 38.6817 51.815 37.8223C52.4816 38.1631 53.2223 38.3335 53.9705 38.326C55.2002 38.3409 56.3483 37.7335 57.0149 36.7038L57.4223 35.9631L56.6816 35.652C54.2002 34.6224 53.6521 31.852 53.5409 30.3556C53.7854 30.4075 54.0297 30.4372 54.2816 30.4446L54.4891 30.5853C57.1853 30.5853 58.0891 27.8371 58.1261 27.7186L58.4297 26.7483H57.415C55.2817 26.6742 53.2891 25.6668 51.9706 23.9853ZM54.4964 29.8372H54.3927C53.852 29.8446 53.3186 29.6964 52.8595 29.415C52.8595 29.415 52.4667 34.7706 56.4594 36.4297V36.4519C55.9335 37.252 55.0298 37.726 54.0742 37.7112C52.9928 37.7779 51.9483 37.3186 51.2668 36.4816C51.2891 37.7409 51.0816 39.0001 50.6594 40.1853C50.1187 41.6149 50.1187 43.2001 50.6594 44.6298C50.3261 44.7112 49.9928 44.7556 49.652 44.7556C49.4445 44.7556 49.2298 44.7334 49.0298 44.6817C48.0446 44.4445 47.2593 43.7187 46.9409 42.763C46.9409 42.763 47.0965 47.9038 41.1038 47.9038H41.0594C41.5112 47.0446 41.7484 46.089 41.7409 45.1186C42.0002 41.3187 44.5779 40.7779 44.5779 40.7779C43.8668 40.689 43.1927 40.4371 42.6002 40.0372C42.0595 39.5853 41.7484 38.9187 41.7335 38.215C43.4668 38.289 45.1409 37.5705 46.2742 36.252C46.9557 35.4742 47.4076 34.5261 47.6002 33.5112C46.6447 34.2298 45.4669 34.5927 44.2742 34.5409H43.6669C43.0223 34.4742 42.4076 34.2223 41.9113 33.8001C44.1928 32.3187 45.7928 29.7853 44.3778 25.9408C43.2372 22.8594 40.5038 20.5557 37.7557 18.8224C36.8446 18.2593 36.2964 17.6224 36.2964 17.0742C36.2964 15.7854 38.126 15.7483 38.8817 14.852C39.7483 13.8446 39.2075 12.2149 38.452 11.2372C38.6667 11.2001 38.8891 11.1853 39.1039 11.1853C40.3409 11.1705 41.5336 11.6668 42.3928 12.5557C43.2668 13.3853 43.6001 14.6372 43.2668 15.7927L43.6669 15.8742C43.9112 15.9187 44.1557 15.9409 44.4076 15.9483H44.5704C46.741 15.9483 47.7187 13.6742 47.7187 13.6742C47.7187 13.6742 50.0297 16.5187 46.6298 18.7408C46.0447 19.1187 45.7853 19.4817 45.8891 19.852L45.9408 20.0964L46.1853 20.1409C48.6519 20.8075 49.889 22.5112 51.4223 24.4446C52.8742 26.289 55.0668 27.4002 57.415 27.4816H57.4593C57.4593 27.4816 56.7186 29.8372 54.4964 29.8372Z" fill="#E1E8F4"/>
<path d="M49.7405 19.8891C50.5702 20.3631 51.2887 21.0076 51.8518 21.7779C52.2739 22.4298 52.8739 22.9483 53.585 23.2594C53.8517 23.3484 54.1406 23.3928 54.422 23.3928C55.5554 23.3928 56.5924 22.7484 57.1109 21.7408L57.5405 20.778L56.4961 20.7187C55.3702 20.5113 54.3554 19.9335 53.6072 19.0668C53.0518 18.4668 52.2739 18.1186 51.4517 18.1113C50.8147 18.1186 50.1998 18.3112 49.6665 18.652L48.7036 19.3261L49.7405 19.8891ZM51.4739 18.8298L51.4517 18.8371C52.0813 18.8371 52.6739 19.1113 53.0962 19.578C53.9629 20.5705 55.148 21.2298 56.4517 21.4446C56.0518 22.1928 55.2738 22.6594 54.422 22.6668C54.2147 22.6668 54.0073 22.6297 53.8073 22.5631C52.6073 22.1557 52.1851 20.3409 50.1035 19.2447C50.5109 18.978 50.9851 18.8371 51.4739 18.8298ZM50.2295 29.4372L50.2148 29.4223C49.6073 24.5334 46.0592 21.0001 42.1111 18.8593C41.7481 18.6594 41.4074 18.4965 41.0815 18.3408C42.7111 18.6742 44.4074 18.2742 45.7184 17.2519C45.7184 17.2519 43.4296 18.9334 38.7481 17.4075C40.0444 18.252 42.5629 19.4371 44.8666 21.3631C50.6147 26.415 46.5037 31.3483 46.5037 31.3483C48.2222 29.7186 48.8222 27.2298 48.0518 24.9927C49.2667 27.015 49.8518 29.3557 49.7258 31.7112C49.5629 35.5927 47.4074 38.9853 45.1852 41.689C44.5184 42.5409 44.0592 43.5408 43.8667 44.6076C44.2444 43.5483 44.8148 42.5704 45.5555 41.7261C47.9629 38.9038 50 35.9779 50.2888 31.7631C50.5408 32.5038 51.5629 34.6594 53.1926 35.4667C53.1926 35.4667 51.1481 34.2372 50.2295 29.4372ZM19.5629 47.5039C19.2074 46.7484 19.0148 45.9187 19.0073 45.0817C18.9851 43.5484 18.3556 42.0891 17.2592 41.0224C17.4814 40.9188 17.6888 40.7854 17.8741 40.6225C18.5777 40.0225 18.9851 39.1483 18.9778 38.2225L18.9332 37.5631H18.2666C16.7407 37.6372 15.2593 37.0077 14.2592 35.8447C14.0444 35.5929 13.8518 35.3188 13.6814 35.0299C14.3407 35.2299 15.0221 35.3262 15.7111 35.3262H16.3852C17.1926 35.2447 17.9555 34.9188 18.5704 34.3929L19.2592 33.7632L18.4741 33.2595C16.7111 32.1336 14.911 30.0003 16.2962 26.2521C17.1926 23.815 19.2592 21.615 22.6295 19.4965C23.7629 18.7558 24.3851 17.9335 24.3851 17.1262C24.3851 15.8817 23.3407 15.3855 22.5778 15.0373C22.2296 14.9039 21.911 14.7113 21.6296 14.4669C21.037 13.778 21.5333 12.4669 22.0888 11.7558L22.8296 10.8299L21.6889 10.6076C21.4295 10.5632 21.163 10.5484 20.8963 10.5484C19.4518 10.5039 18.0592 11.0595 17.0369 12.0743C16.1999 12.8965 15.763 14.0521 15.8444 15.2224H15.4C13.7333 15.2224 12.9481 13.4595 12.9185 13.3854L12.4518 12.2817L11.711 13.2076C11.0222 14.1113 10.7036 15.2446 10.8296 16.378C11.0814 17.6299 11.8592 18.7113 12.9703 19.341C13.074 19.4076 13.1777 19.4817 13.2666 19.5631C10.9259 20.304 9.61475 21.9928 8.23697 23.7484L8.03698 24.0003C6.71846 25.6818 4.71845 26.6892 2.58512 26.7631H1.57031L1.88141 27.7336C1.88141 27.8521 2.81476 30.6003 5.51845 30.6003H5.65178C5.90365 30.5928 6.14809 30.5632 6.39253 30.5113C6.28142 31.9929 5.73326 34.7781 3.24439 35.8077L2.50364 36.1188L2.91104 36.8595C3.57772 37.8891 4.72586 38.4966 5.95549 38.4817C6.70364 38.4891 7.43698 38.3187 8.10364 37.978C8.20735 38.8372 8.39993 39.6817 8.67401 40.4965C9.14068 41.7484 9.14068 43.1335 8.67401 44.3854L8.30365 45.1707L9.14809 45.3928C9.53327 45.4818 9.93326 45.5335 10.3333 45.5335C10.5999 45.5335 10.8666 45.504 11.1259 45.4447C11.674 45.3187 12.1777 45.0669 12.6073 44.7039C12.8666 45.5335 13.3111 46.2966 13.9111 46.9261C15.074 48.1188 16.7407 48.7113 18.911 48.7188H20.2295L19.5629 47.5039ZM18.9259 47.9187C12.9333 47.9187 13.0814 42.778 13.0814 42.778C12.7629 43.7335 11.9777 44.4595 10.9925 44.6965C10.7925 44.7484 10.5777 44.7706 10.3703 44.7706C10.0296 44.7706 9.69623 44.7262 9.37031 44.6446C9.91105 43.215 9.91105 41.6299 9.37031 40.2003C8.94808 39.015 8.74808 37.7557 8.77031 36.4965C8.08883 37.3336 7.04438 37.7928 5.9629 37.7262H5.92586C4.96289 37.741 4.0592 37.2595 3.53327 36.4594C7.52587 34.8003 7.13327 29.4447 7.13327 29.4447C6.67402 29.7262 6.14068 29.8743 5.59994 29.8669H5.51845C3.29623 29.8669 2.5555 27.5113 2.5555 27.5113H2.59994C4.94809 27.4372 7.14808 26.3262 8.59994 24.4818C10.1259 22.5484 11.3703 20.8447 13.837 20.178L14.0814 20.1336L14.1333 19.8891C14.1999 19.5114 13.9407 19.1484 13.3925 18.778C9.99253 16.5558 12.3036 13.7113 12.3036 13.7113C12.3036 13.7113 13.2666 15.9855 15.4519 15.9855H15.5555C15.8074 15.978 16.0519 15.9558 16.2962 15.9114L16.6963 15.8299C16.3555 14.6743 16.6963 13.4225 17.5703 12.5928C18.4295 11.7039 19.6222 11.2076 20.8592 11.2224C21.074 11.2224 21.2963 11.2373 21.5111 11.2743C20.7703 12.2595 20.2222 13.8891 21.0889 14.8891C21.8296 15.7558 23.6666 15.7929 23.6666 17.1114C23.6666 17.6595 23.1556 18.2965 22.2445 18.8668C19.4888 20.6002 16.7555 22.9039 15.6221 25.9854C14.2073 29.8299 15.8074 32.3854 18.0889 33.8446C17.5925 34.2595 16.9777 34.5187 16.3333 34.5855H15.7184C14.5259 34.6372 13.3481 34.2744 12.3925 33.5557C12.5851 34.5706 13.037 35.5188 13.711 36.2965C14.8444 37.6077 16.5259 38.3335 18.2593 38.2594C18.2444 38.9632 17.9333 39.6298 17.3926 40.0818C16.7999 40.4817 16.1258 40.7335 15.4148 40.8225C15.4148 40.8225 17.9999 41.3484 18.2815 45.1632C18.274 46.1335 18.5111 47.0892 18.9629 47.9484L18.9259 47.9187Z" fill="#E1E8F4"/>
<path d="M5.57051 23.3852H5.5779C5.85939 23.3852 6.14828 23.3407 6.41495 23.2519C7.12605 22.9407 7.72605 22.4223 8.14827 21.7704C8.70383 21 9.42236 20.3556 10.252 19.8815L11.289 19.326L10.3261 18.6519C9.79272 18.3111 9.1779 18.1185 8.54828 18.1111C7.72605 18.1185 6.94827 18.4666 6.39272 19.0741C5.65199 19.9333 4.62975 20.5185 3.51125 20.7259L2.4668 20.7779L2.88902 21.7407C3.40754 22.7483 4.43717 23.3778 5.57051 23.3852ZM6.90383 19.5778C7.31865 19.1112 7.91124 18.837 8.54087 18.837C9.02235 18.8445 9.49643 18.9927 9.90383 19.2519C7.80753 20.3705 7.37051 22.1629 6.20013 22.5703C6.00753 22.6371 5.80013 22.6742 5.59272 22.6742C4.73346 22.6742 3.94827 22.2 3.54828 21.4444C4.85198 21.2297 6.03717 20.5704 6.90383 19.5778ZM10.2891 31.7407C10.1632 29.3851 10.7409 27.0444 11.9632 25.0222C11.1928 27.2592 11.7928 29.7482 13.5113 31.3778C13.5113 31.3778 9.39279 26.4444 15.1483 21.3925C17.452 19.4667 19.9632 18.2815 21.2595 17.437C16.578 18.963 14.2891 17.2815 14.2891 17.2815C15.6001 18.3037 17.2891 18.7036 18.9187 18.3703C18.5928 18.5259 18.252 18.6963 17.8891 18.8889C13.9409 21.037 10.3706 24.5704 9.78539 29.4592V29.4222C8.86686 34.2222 6.82242 35.4519 6.82242 35.4519C8.44464 34.6518 9.47427 32.4889 9.71871 31.7481C9.99279 35.9704 12.0521 38.8963 14.4595 41.7111C15.1927 42.5556 15.7705 43.5333 16.1484 44.5926C15.9483 43.5333 15.4891 42.5334 14.815 41.6889C12.5928 38.9852 10.4446 35.5926 10.2891 31.7407ZM28.6446 22.8222C28.9038 22.5703 29.2668 22.4519 29.6298 22.4963V23.8962C29.6224 24.2444 29.5335 24.5778 29.3631 24.8814H30.763C30.5928 24.5778 30.5038 24.2444 30.4965 23.8962V22.4963C30.852 22.4519 31.215 22.5703 31.4742 22.8222V21.8518H28.6446V22.8222ZM28.0594 16.1037H28.0446C28.2594 16.2889 28.5112 16.437 28.7854 16.5259L28.9632 16.6074V15.689L27.3187 15C27.4002 15.4593 27.6669 15.8592 28.0594 16.1037ZM31.9632 16.0963L31.9557 16.1037C32.3484 15.8592 32.6149 15.4593 32.6965 15L31.0521 15.689V16.6L31.2223 16.5184C31.4965 16.4296 31.7484 16.2814 31.9632 16.0963Z" fill="#E1E8F4"/>
<path d="M34.9112 12.385C34.9112 10.9998 32.5778 9.75537 30.0074 9.75537C27.437 9.75537 25.1038 10.9998 25.1038 12.385L25.1555 12.7257L26.1853 18.6516L25.1555 19.2516L22.4668 20.7776C22.4668 20.7776 21.8668 21.0887 21.5852 21.2739C20.5705 22.0146 20.3555 23.0072 20.9408 23.4369C21.0889 22.4294 21.9704 21.6887 22.9927 21.7184C23.8445 21.7406 24.6371 22.1702 25.1186 22.8738C25.2667 23.0517 25.4 23.2443 25.5185 23.4369C25.6741 23.6888 25.8296 23.9109 25.9852 24.1257H19.126C19.7038 25.1183 20.0371 26.2368 20.1112 27.3849V42.6221C20.1112 46.3257 22.9481 48.0665 26.0371 48.0665C28.4075 48.0665 28.726 47.9553 30.0296 49.2591C31.3334 47.9553 31.6519 48.0665 34.0223 48.0665C37.0889 48.0665 39.9482 46.3109 39.9482 42.6221V27.3998C40.0223 26.2517 40.3556 25.1331 40.9334 24.1406H34C34.1555 23.9258 34.3112 23.7035 34.4668 23.4516C34.5926 23.259 34.726 23.0664 34.8667 22.8887C35.3555 22.185 36.1481 21.7554 37 21.7331C38.0222 21.7035 38.9038 22.4442 39.0518 23.4516C39.6445 23.0294 39.4297 21.9702 38.4074 21.2888C38.1334 21.0962 37.5334 20.7924 37.5334 20.7924L34.8667 19.2221L33.8371 18.6221L34.8667 12.6961L34.9112 12.385ZM26.0963 13.0665L29.7112 14.2887V19.9628L27.0518 18.5553L26.0963 13.0665ZM20.6074 25.1258H26.837C27.3185 25.6295 27.9112 26.0294 28.5631 26.2812C28.4222 26.7702 28.4593 27.2961 28.6594 27.7628C28.8964 28.2591 29.3186 28.6443 29.837 28.8443C29.9333 29.6961 30.5111 30.4073 31.3186 30.6887C30.8741 31.1406 30.437 31.5627 30.2593 31.7331L26.1185 31.6665C25.9778 31.5998 25.8667 31.4961 25.7926 31.3628V31.3109L26.4667 31.422H26.5112C26.6444 31.422 26.7556 31.3331 26.7778 31.1999C26.8 31.0517 26.7037 30.9183 26.5556 30.8888L25.726 30.7554L26.6444 27.5702L25.7704 25.7331L24.3704 27.2147L24.2815 30.5258L23.3408 30.3776C23.1926 30.348 23.0593 30.4443 23.0297 30.5924V30.5999C23.0074 30.7479 23.1037 30.8813 23.2519 30.911L23.6444 30.9702C23.5037 31.0517 23.4074 31.1109 23.4001 31.1258L23.3186 31.185V31.2813C23.1334 32.1257 23.4742 32.9999 24.1705 33.5036V33.6221C24.1259 33.911 24.326 34.185 24.6149 34.2368H24.7037C24.9482 34.2368 25.163 34.0665 25.2149 33.822C25.3927 33.8294 25.5631 33.8294 25.7408 33.822H25.8518L31.2815 34.8072L31.3705 34.748C31.8001 34.4442 33.4519 33.2664 33.9926 32.8443C34.1482 32.9775 34.3259 33.0962 34.5112 33.185C34.2593 33.9627 34.4519 34.8146 35.0149 35.4072H21.1037V27.3998C21.0742 26.622 20.9038 25.8516 20.6074 25.1258ZM33.526 32.4516C32.963 32.8665 31.5778 33.8739 31.0741 34.2294L26.1482 33.3702V33.2369C26.2297 32.9036 26.2741 32.5628 26.2816 32.222L30.4297 32.2887L30.5111 32.2073C30.5779 32.1405 31.8889 30.8739 32.5556 30.1406C32.7334 30.3627 32.9408 30.548 33.1778 30.6962C33.0593 31.3035 33.1852 31.9331 33.526 32.4516ZM25.2964 31.5627V31.5849C25.4075 31.7924 25.5704 31.9701 25.7704 32.0888C25.763 32.3924 25.7333 32.6888 25.6816 32.985C25.6816 33.0516 25.6816 33.1184 25.6297 33.185V33.2888C25.2889 33.2888 24.9556 33.2369 24.6296 33.1331C24.0371 32.8146 23.7037 32.1627 23.8 31.4961C24.0667 31.3109 24.3704 31.1924 24.6889 31.148C24.9631 31.1406 25.2074 31.3035 25.2964 31.5627ZM24.7852 30.5775L24.8668 27.4443L25.6075 26.7035L26.0593 27.6443L25.1779 30.6962L24.7852 30.5775ZM33.4889 47.0813H32.7778L33.3334 45.2664C33.4223 45.0146 32.963 44.6886 32.7704 44.3999C33.2222 44.6739 33.6889 44.9183 34.1704 45.1406C34.1704 45.1998 33.4889 47.0813 33.4889 47.0813ZM35.3926 45.0516L35.3333 44.9999L34.9481 46.9998C34.7038 46.9998 34.4444 47.0517 34.2074 47.0664L34.6148 45.1406C34.7333 44.5701 33.2 44.3999 32.4445 43.2665C31.9481 43.6812 31.3112 43.8738 30.6742 43.8072C30.1112 43.7999 29.5556 43.7405 29.0074 43.6295C28.9112 43.622 28.8149 43.622 28.7186 43.6295C28.489 43.6146 28.2667 43.7331 28.1482 43.9331L28.037 44.1183L25.9259 43.6073L25.4222 44.4813C25.3408 44.5998 25.3556 44.7627 25.4593 44.8665L25.6 45.0221C25.4593 45.2961 25.2815 45.548 25.0667 45.7628L24.7556 45.3776C24.5186 44.9924 24.5408 44.4962 24.8075 44.1332L25.637 42.7331L27.4075 42.9998L27.1334 42.3702C26.7631 41.5406 27.326 40.4813 27.3853 39.8739C27.3853 40.059 27.1927 40.0961 27.0001 40.0961H26.4889C26.4518 40.0887 26.4074 40.0887 26.3704 40.0961L25.8889 40.385L25.5112 40.0368C25.4519 39.9257 25.4741 39.7925 25.5631 39.7109L26.4371 38.7257L25.4 37.5183L26.8816 38.259L27.326 37.7258C27.4445 37.8443 27.3926 38.1554 27.3926 38.1554C28.4668 38.4221 29.2148 39.3998 29.1853 40.511V40.7258C29.3333 40.9628 29.5705 41.1257 29.837 41.1924L31.8445 41.3924C32.2445 41.2665 32.6519 41.1849 33.0667 41.1332C33.4223 41.1332 33.7778 41.2443 34.0741 41.4368C34.2149 41.3406 34.3852 41.2812 34.5556 41.2739H34.6223C35.5186 41.2739 35.8963 42.0887 36.3778 42.7554C36.7408 43.2665 37.2296 44.0369 37.2296 44.0369C37.0889 44.2443 36.8593 44.3702 36.6074 44.3702C36.5186 44.3775 36.437 44.3775 36.3482 44.3702C35.3852 44.1924 35.2445 42.2072 34.6963 42.0516H34.6075C34.5037 42.0516 34.4075 42.1109 34.3556 42.2072C34.6075 42.8813 34.4593 43.1553 34.7333 43.6887C34.9334 44.0072 35.1853 44.2961 35.4742 44.5406C35.4742 44.5406 35.4371 44.8368 35.3926 45.0516ZM24.6001 43.1109H24.5852L24.6742 43.3406C24.6149 43.5405 23.9333 43.8294 23.9333 43.8294L23.7853 43.5035C23.5927 43.0368 23.7334 42.5036 24.1408 42.1998L25.2593 41.5184L26.4518 41.7702C26.4445 42.0072 26.5186 42.2369 26.6593 42.4295L25.4074 42.1925L24.6667 42.7109C24.5482 42.8147 24.526 42.9776 24.6001 43.1109ZM38.926 42.6294C39.0074 44.6888 37.5778 46.4961 35.5556 46.8962L35.8963 45.1035C35.8963 44.9999 35.9333 44.8739 35.9482 44.7702C36.0518 44.8146 36.1556 44.8443 36.2593 44.8665C36.3778 44.8739 36.4963 44.8739 36.6149 44.8665C37.0223 44.8665 37.4075 44.6813 37.6519 44.3553L37.9186 44.0442L37.6963 43.7406C37.6963 43.7406 37.2001 42.9554 36.8297 42.4368L36.6223 42.1257C36.2074 41.5035 35.6815 40.7183 34.637 40.7183H34.5407C34.3927 40.7258 34.2371 40.7553 34.0963 40.8072C33.7778 40.6517 33.4297 40.5702 33.0742 40.5702C32.7185 40.5776 32.363 40.6443 32.0297 40.7702L31.8518 40.8221L29.8963 40.6295C29.8148 40.5924 29.7482 40.5332 29.6963 40.4591L30.1186 40.2887C30.0001 38.8739 28.637 38.0072 27.8963 37.7183C27.8593 37.5627 27.7852 37.4294 27.6742 37.3184L27.2519 36.9183L26.8816 37.3628L26.6963 37.5849L23.9555 36.459L25.7408 38.6813L25.037 39.7479C24.889 39.8961 24.8815 40.1406 25.037 40.2962L25.7779 40.7999L26.5186 40.5183H26.5927C26.5927 40.6295 26.5112 41.0813 26.4742 41.2073L25.1852 40.985L23.8075 41.7257C23.1704 42.185 22.9481 43.0295 23.2816 43.7406L23.4371 44.0739L23.6519 44.5479L24.1334 44.348C23.9555 44.8295 24.0296 45.3627 24.3407 45.7701L24.6296 46.1406L25.0148 46.6295L25.4444 46.1702C25.726 45.8888 25.9481 45.5628 26.1037 45.1998L26.1926 44.9036L25.9852 44.6739V44.6294L26.2223 44.2443L27.9334 44.6442L28.3186 44.7332L28.526 44.3924L28.637 44.2073C28.637 44.1702 28.637 44.1627 28.7408 44.1627H28.9259C29.5112 44.2812 30.1037 44.3406 30.6964 44.348C31.0963 44.3702 31.4963 44.3258 31.8815 44.2073L32.8297 45.2888L32.2667 47.022V47.1257C31.4222 47.111 30.6149 47.4591 30.0445 48.0738C29.1334 47.1702 28.489 47.0739 26.0519 47.0739C23.126 47.0739 21.1481 45.3627 21.1481 42.6294V35.9628H38.926V42.6294ZM39.4075 25.1258C39.1037 25.8443 38.9408 26.6147 38.9111 27.3998V32.3924C38.2667 32.2517 37.7852 31.7036 37.7408 31.0443V30.8147H37.5185C37.1333 30.785 36.7778 30.6072 36.5111 30.3332C36.1852 29.9553 36.0074 29.4813 36.0001 28.985C35.6815 29.5035 35.7112 30.1701 36.0815 30.6591C36.3704 31.022 36.7927 31.2665 37.2518 31.3257C37.3852 32.1849 38.0741 32.8517 38.9333 32.9628V35.4072H35.8223C35.0075 34.9925 34.6667 34.022 35.0297 33.185L35.1482 32.9183L34.8742 32.8146C33.9853 32.5035 33.4963 31.548 33.7778 30.6443L33.8371 30.422L33.6296 30.3257C32.8519 29.8739 32.4223 28.9925 32.5481 28.1036C32.1407 28.5183 32.0371 29.148 32.2963 29.6664C32.1482 29.8368 31.9556 30.0368 31.7408 30.2591C30.9631 30.0962 30.4 29.4221 30.3704 28.6295V28.4442L30.2 28.3776C29.7482 28.2443 29.3779 27.9332 29.1631 27.5183C29.0222 27.1776 28.9927 26.7924 29.089 26.4368C29.237 26.4665 29.3852 26.4887 29.5334 26.5035C29.6815 26.5109 29.837 26.5109 29.9852 26.5035C31.1852 26.5035 32.326 25.985 33.1259 25.0961L39.4075 25.1258ZM34.6075 20.0739L35.8223 20.8146L36.1259 20.9924C35.4964 21.1628 34.9259 21.5036 34.4741 21.9776L34.4222 22.022C34.3186 22.1331 34.2223 22.2443 34.126 22.3628L34.0667 22.4369C33.9704 22.5554 33.8815 22.6812 33.8 22.8146L33.7556 22.8813C33.6518 23.0294 33.5555 23.1924 33.4594 23.3553C32.7853 24.6962 31.4741 25.5924 29.9852 25.7406C28.4963 25.5924 27.1852 24.6962 26.5112 23.3553C26.4149 23.1924 26.3186 23.0369 26.2223 22.8813L26.1631 22.7999L25.9259 22.4147L25.8593 22.3331C25.763 22.2146 25.6667 22.1036 25.5704 21.9998L25.5185 21.948C25.0667 21.4739 24.4963 21.1331 23.8667 20.9628L24.1778 20.7849L25.4 20.0442L26.6519 19.3035L29.9926 21.1184L33.3334 19.3628L34.6075 20.0739ZM32.963 18.5924L30.3037 19.9925V14.2961L33.9112 13.0739L32.963 18.5924ZM30.0001 13.6961L26.0444 12.1109C26.3779 11.3109 27.9334 10.6295 30.0001 10.6295C32.0668 10.6295 33.6223 11.3109 33.9556 12.1109L30.0001 13.6961Z" fill="#E1E8F4"/>
</svg>
