<svg width="60" height="60" viewBox="0 0 60 60" fill="none" xmlns="http://www.w3.org/2000/svg">
<g clip-path="url(#clip0_622_45185)">
<path d="M0 28.8C0 15.2235 0 8.43525 4.218 4.218C8.43525 0 15.2235 0 28.8 0H31.2C44.7765 0 51.5648 0 55.782 4.218C60 8.43525 60 15.2235 60 28.8V31.2C60 44.7765 60 51.5648 55.782 55.782C51.5648 60 44.7765 60 31.2 60H28.8C15.2235 60 8.43525 60 4.218 55.782C0 51.5648 0 44.7765 0 31.2V28.8Z" fill="white"/>
<path d="M31.9253 43.2255C18.2498 43.2255 10.4505 33.8505 10.125 18.2505H16.9747C17.1997 29.7007 22.2502 34.5517 26.25 35.5507V18.2512H32.7V28.1257C36.6502 27.7005 40.8 23.2005 42.1995 18.2512H48.6495C47.5747 24.351 43.0747 28.851 39.8745 30.7012C43.0747 32.2012 48.1995 36.126 50.1495 43.2262H43.05C41.5253 38.4757 37.725 34.8007 32.7 34.3012V43.2262H31.9253V43.2255Z" fill="#6E85AB" fill-opacity="0.15"/>
</g>
<defs>
<clipPath id="clip0_622_45185">
<rect width="60" height="60" rx="30" fill="white"/>
</clipPath>
</defs>
</svg>
