<svg width="120" height="120" viewBox="0 0 120 120" fill="none" xmlns="http://www.w3.org/2000/svg">
<rect width="120" height="120" fill="#151F2D"/>
<path d="M44.5409 44.0819C48.4295 44.0819 51.5819 40.9295 51.5819 37.0409C51.5819 33.1523 48.4295 30 44.5409 30C40.6523 30 37.5 33.1523 37.5 37.0409C37.5 40.9295 40.6523 44.0819 44.5409 44.0819Z" fill="white"/>
<path d="M44.5409 90.0001C48.4295 90.0001 51.5819 86.8478 51.5819 82.9592C51.5819 79.0706 48.4295 75.9182 44.5409 75.9182C40.6523 75.9182 37.5 79.0706 37.5 82.9592C37.5 86.8478 40.6523 90.0001 44.5409 90.0001Z" fill="white"/>
<path d="M81.5854 38.5148C75.478 32.9066 68.29 30.0695 60.0215 30.0034V44.0853C64.0292 44.0853 67.6586 45.5443 70.9094 48.4623C74.1603 51.3804 75.7915 55.2559 75.8029 60.0889C75.8029 64.9174 74.1866 68.7633 70.9539 71.6266C67.7213 74.49 64.0908 75.9228 60.0625 75.925H60.0215V89.9864H60.2335C68.8531 89.9864 76.1129 87.0284 82.0128 81.1126C87.9128 75.1967 90.8616 68.0349 90.8593 59.6273C90.8593 51.2288 87.768 44.1913 81.5854 38.5148Z" fill="white"/>
</svg>
