<svg width="97" height="32" viewBox="0 0 97 32" fill="none" xmlns="http://www.w3.org/2000/svg">
<path d="M38.8049 7.92422C40.7801 7.92422 42.3813 6.32303 42.3813 4.34785C42.3813 2.37268 40.7801 0.771484 38.8049 0.771484C36.8297 0.771484 35.2285 2.37268 35.2285 4.34785C35.2285 6.32303 36.8297 7.92422 38.8049 7.92422Z" fill="#151F2D"/>
<path d="M38.8049 31.2475C40.7801 31.2475 42.3813 29.6463 42.3813 27.6711C42.3813 25.6959 40.7801 24.0947 38.8049 24.0947C36.8297 24.0947 35.2285 25.6959 35.2285 27.6711C35.2285 29.6463 36.8297 31.2475 38.8049 31.2475Z" fill="#151F2D"/>
<path d="M15.0334 0C19.1587 0 22.7404 1.49123 25.7786 4.47369C28.8168 7.45615 30.336 11.1633 30.336 15.5952C30.336 19.9992 28.8865 23.7621 25.9877 26.884C23.0889 29.9779 19.521 31.5249 15.2843 31.5249C11.0475 31.5249 7.4379 29.9918 4.45544 26.9258C1.50085 23.8597 0.0235596 20.2083 0.0235596 15.9715C0.0235596 13.658 0.441661 11.4978 1.27787 9.49091C2.11407 7.45615 3.22901 5.75587 4.62268 4.39007C6.01635 3.02427 7.61908 1.95114 9.43085 1.17068C11.2426 0.390228 13.1101 0 15.0334 0ZM7.42396 15.7624C7.42396 18.2432 8.21836 20.264 9.80714 21.8249C11.4238 23.358 13.2216 24.1245 15.2007 24.1245C17.1797 24.1245 18.9636 23.3719 20.5524 21.8667C22.1412 20.3616 22.9355 18.3407 22.9355 15.8043C22.9355 13.2678 22.1272 11.233 20.5106 9.69996C18.9218 8.16693 17.1379 7.40041 15.1588 7.40041C13.1798 7.40041 11.3959 8.18086 9.80714 9.74178C8.21836 11.2748 7.42396 13.2817 7.42396 15.7624Z" fill="#151F2D"/>
<path d="M81.1559 0C85.2811 0 88.8629 1.49123 91.9011 4.47369C94.9393 7.45615 96.4584 11.1633 96.4584 15.5952C96.4584 19.9992 95.009 23.7621 92.1101 26.884C89.2113 29.9779 85.6435 31.5249 81.4067 31.5249C77.1699 31.5249 73.5603 29.9918 70.5779 26.9258C67.6233 23.8597 66.146 20.2083 66.146 15.9715C66.146 13.658 66.5641 11.4978 67.4003 9.49091C68.2365 7.45615 69.3514 5.75587 70.7451 4.39007C72.1388 3.02427 73.7415 1.95114 75.5533 1.17068C77.3651 0.390228 79.2326 0 81.1559 0ZM73.5464 15.7624C73.5464 18.2432 74.3408 20.264 75.9296 21.8249C77.5462 23.358 79.3441 24.1245 81.3231 24.1245C83.3021 24.1245 85.086 23.3719 86.6748 21.8667C88.2636 20.3616 89.058 18.3407 89.058 15.8043C89.058 13.2678 88.2497 11.233 86.633 9.69996C85.0442 8.16693 83.2603 7.40041 81.2813 7.40041C79.3023 7.40041 77.5184 8.18086 75.9296 9.74178C74.3408 11.2748 73.5464 13.2817 73.5464 15.7624Z" fill="#151F2D"/>
<path d="M57.6219 5.09209C54.5188 2.24312 50.8675 0.801944 46.668 0.768555V7.92334C48.7054 7.92811 50.5489 8.66914 52.1986 10.1464C53.8483 11.6237 54.6779 13.5913 54.6875 16.0491C54.6875 18.5022 53.8667 20.4558 52.2252 21.9099C50.5837 23.364 48.7384 24.0918 46.6894 24.0932H46.668V31.2479H46.7763C51.155 31.2479 54.8421 29.7458 57.8376 26.7415C60.8331 23.7371 62.3322 20.0994 62.3349 15.8284C62.3329 11.5573 60.7619 7.97853 57.6219 5.09209Z" fill="#151F2D"/>
</svg>
