<svg width="50" height="50" viewBox="0 0 50 50" fill="none" xmlns="http://www.w3.org/2000/svg">
<rect width="50" height="50" rx="25" fill="white"/>
<path fill-rule="evenodd" clip-rule="evenodd" d="M32.0001 50C23.7298 41.9998 19.5945 37.9998 19.5943 38L11.5058 46C10.6737 47.0973 10.8887 48.6613 11.986 49.4934C12.4195 49.8221 12.9486 50 13.4926 50C13.5061 50 13.5197 50 13.5333 50C19.6889 50 25.8445 50 32.0001 50Z" fill="#FF4F12"/>
<path fill-rule="evenodd" clip-rule="evenodd" d="M40 18L22 0L11.9503 10.4684C10.6988 11.772 10 13.5091 10 15.3162L10 46C10 48.2091 11.7909 50 14 50C12.6314 50 11.5219 48.8905 11.5219 47.5219C11.5219 46.863 11.7843 46.2312 12.251 45.7662" fill="#7800FF"/>
</svg>
